#!OML:ASF F:\VICON\USERDATA\INSTALL\rory3\rory3.ASF
:FULLY-SPECIFIED
:DEGREES
43
root 0.8259558101684835 17.813022815922928 2.0886270113745384 -2.1913583710698075 1.2277520278602732 2.236867907657819
lfemur 11.543565460806326 -2.486333367766471 -26.061835047711003
ltibia 14.589260971752356
lfoot -12.801516501946331 -1.4229843019849717
ltoes -13.965061442228508
rfemur -27.28584709108125 8.509560009376662 15.90067498104499
rtibia 15.12600072705213
rfoot -9.461532710797638 -14.437644497028597
rtoes -4.111748267921568
lowerback 9.876548546940928 -1.579955107673279 -4.6764459249552335
upperback 0.3857951488638255 -2.4451185591726707 0.9541759173103831
thorax -4.530404286622506 -1.0922037790980454 4.2954310922996175
lowerneck -15.98141032930525 -2.944877626220216 -2.1803367096619586
upperneck 22.783970373220807 -3.659754466807075 0.49067424372368695
head 10.080990400289963 -1.809045990769635 -0.0019811037072658966
lclavicle -1.3858270692606013e-15 -1.84286901927194e-15
lhumerus -22.170802472473788 -1.2782910360766158 79.69720532448063
lradius 30.23276808314854
lwrist 8.25931475608322
lhand -29.59312243246475 23.320513120029904
lfingers 7.125019999999999
lthumb -3.223748424009586 53.14169254831669
rclavicle -1.38823332372148e-15 -1.8444423016088744e-15
rhumerus -35.69021559453921 -28.541837244089734 -69.43352608068605
rradius 20.06223467068099
rwrist 10.23277680300972
rhand -17.63445281969988 22.851466950665728
rfingers 7.125019999999999
rthumb 8.815778329659722 -6.8520842935548085
44
root 0.7637485125327232 17.734115516205296 2.6792626498175336 -2.2457309894300597 1.000345722210527 2.2856649431200204
lfemur 13.405449665865559 -3.3309264822006512 -26.043905381571932
ltibia 15.887118033119119
lfoot -12.180725492135096 -2.105505154076747
ltoes -16.069518728967516
rfemur -27.50435715202956 4.900727382662081 17.884069372064474
rtibia 20.13228690886302
rfoot -8.126717336825532 -10.350308926375611
rtoes -3.6121143843414885
lowerback 10.077099117728125 -1.5367368493418525 -4.750436452075359
upperback 0.38611776828192945 -2.404245770405222 1.1135556323973355
thorax -4.537481621139353 -1.0778951953902605 4.332123373202008
lowerneck -16.14435880758509 -2.9197374758851593 -2.2047362100951444
upperneck 22.71650050204779 -3.5878587529999293 0.47930082674885993
head 10.08897477643813 -1.7751070663843547 0.009473684440192143
lclavicle -1.3862263469763217e-15 -1.8435056777847467e-15
lhumerus -22.932340628748044 -0.8575317037677861 79.95549755637613
lradius 30.802770476286916
lwrist 8.1874486651757
lhand -30.187356070118053 22.85570624187755
lfingers 7.125019999999999
lthumb -3.792870192308716 52.63125239019328
rclavicle -1.3882907275689094e-15 -1.8444965635211786e-15
rhumerus -36.22531981327257 -30.031225030206574 -67.29884021022542
rradius 18.791125388188668
rwrist 12.623976263006991
rhand -17.737175506013614 22.805782938483635
rfingers 7.125019999999999
rthumb 8.711005788412729 -6.960108185193712
45
root 0.6731365637498069 17.696064859171948 3.3959167838853546 -2.2079402874215917 1.3139305217007997 2.2287381934387587
lfemur 15.176519332978303 -4.515908246306699 -25.92705199368257
ltibia 18.022742398855982
lfoot -11.018430987069097 -3.0466193212253074
ltoes -17.640976897905478
rfemur -27.82127614386198 3.6832972457518696 18.99336814832718
rtibia 26.5888944600896
rfoot -5.662209860423024 -8.683664108141642
rtoes -2.8012376983277587
lowerback 9.83664366415205 -1.6739993150474604 -4.617539274350818
upperback 0.4267524330405784 -2.5006534585964877 1.303814842700854
thorax -4.455963127163328 -1.1293564558831652 4.305439066858337
lowerneck -16.242834761952604 -2.8390980164335073 -2.2124288226674147
upperneck 22.86242218199398 -3.401689949708766 0.35814729571075116
head 10.138403370805646 -1.7062590839978846 -0.001652715597487392
lclavicle -1.3844784665001938e-15 -1.842424012484759e-15
lhumerus -23.977689621698417 -0.1387647224412465 80.32940855028794
lradius 30.96089263117029
lwrist 8.282339637290459
lhand -30.40534679162008 22.473083767022917
lfingers 7.125019999999999
lthumb -3.882058818139412 52.332296635418125
rclavicle -1.3883696436303183e-15 -1.8445707252503704e-15
rhumerus -36.88143804406786 -31.64490996845223 -65.18826895312291
rradius 17.687791249160114
rwrist 15.096057916329269
rhand -17.846377692867517 22.657522675678287
rfingers 7.125019999999999
rthumb 8.592108241516481 -7.196494577631881
46
root 0.5802606634317556 17.797487936409556 4.346371929194141 -2.264212642336262 1.6308401122706695 1.4049241905361747
lfemur 15.028315554630426 -5.518970649887679 -24.769485502608603
ltibia 23.238427831389924
lfoot -8.506022428906526 -4.64647884214949
ltoes -18.911382660819104
rfemur -26.869969445070595 4.169152354173667 20.01430057097228
rtibia 30.03116181085123
rfoot -3.9121637894748282 -6.175501621814075
rtoes 0.9695280831502862
lowerback 9.605409178569484 -1.9052347215594376 -3.8429992602249996
upperback 0.3126379557709805 -2.6762571282562293 1.7264012198244139
thorax -4.492506218884152 -1.2240087503680976 4.2020500787104265
lowerneck -16.152070274379028 -2.7369258806320755 -2.2137228554306336
upperneck 23.20090727499507 -3.173853335575362 0.16035591784818706
head 10.245069834352764 -1.6296921393253858 -0.029668594134070636
lclavicle -1.3841343343728227e-15 -1.842084748985825e-15
lhumerus -25.323947938125606 0.6159660738200023 80.72151884129924
lradius 30.816856924970914
lwrist 8.523610190054361
lhand -30.18572470792819 22.3062246044187
lfingers 7.125019999999999
lthumb -3.5969174132510706 52.15354252934107
rclavicle -1.3881313529896851e-15 -1.84434959077959e-15
rhumerus -37.15089329587012 -32.37568166594871 -63.69892199733648
rradius 16.952893303277953
rwrist 16.849191271721647
rhand -17.93802981307774 22.40408573794387
rfingers 7.125019999999999
rthumb 8.475585024435611 -7.497405502462957
